# xmcd
#
# Track frame offsets: 
#        150
#        22656
#        40983
#        63212
#        87225
#        109456
#        130127
#        153571
#        178424
#        200723
#        221825
#        241389
#
# Disc length: 3452 seconds
#
# Revision: 2
# Processed by: cddbd v1.5.2PL0 Copyright (c) Steve Scherf et al.
# Submitted via: ExactAudioCopy v1.1
#
DISCID=ad0d7a0c
DTITLE=Budka Suflera - Piąty Bieg
DYEAR=2005
DGENRE=Rock
TTITLE0=01 Piąty bieg
TTITLE1=02 Doganiaj
TTITLE2=03 Gdzie jest ta krew
TTITLE3=04 Świat od zaraz
TTITLE4=05 Radio taxi
TTITLE5=06 Ratujmy co się da
TTITLE6=07 Twoje radio
TTITLE7=08 Geniusz Blues
TTITLE8=09 Dzień Robinsona
TTITLE9=10 Skandal
TTITLE10=11 Mnie to nie dotyczy
TTITLE11=12 No i gra
EXTD=
EXTT0=
EXTT1=
EXTT2=
EXTT3=
EXTT4=
EXTT5=
EXTT6=
EXTT7=
EXTT8=
EXTT9=
EXTT10=
EXTT11=
PLAYORDER=
